<svg width="52" height="50" viewBox="0 0 52 50" fill="none" xmlns="http://www.w3.org/2000/svg">
<path fill-rule="evenodd" clip-rule="evenodd" d="M23.7972 1.84215C26.7011 1.00008 30.6245 0.5 34.8953 0.5C39.166 0.5 43.0895 1.00008 45.9933 1.84215C47.4352 2.26028 48.7113 2.7869 49.6611 3.4382C50.563 4.05664 51.5 5.02522 51.5 6.38095V28.2857C51.5 29.6443 50.4793 30.5867 49.6131 31.1583C48.6597 31.7875 47.3758 32.317 45.9164 32.7471C43.3241 33.5111 39.933 34.0319 36.2273 34.144V43.481C36.2273 44.8417 35.303 45.828 34.3869 46.4688C33.4281 47.1395 32.1384 47.6828 30.6796 48.1145C27.7427 48.9836 23.7745 49.5 19.4545 49.5C15.1348 49.5 11.1666 48.9842 8.22959 48.1153C6.77085 47.6838 5.48103 47.1406 4.52213 46.4697C3.60559 45.8284 2.68182 44.8419 2.68182 43.481V32.6667C2.68182 31.3033 3.63325 30.3346 4.54005 29.7196C5.24607 29.2407 6.13119 28.8293 7.13093 28.4787C6.99768 28.4461 6.86621 28.413 6.73656 28.3795C5.09414 27.9542 3.6679 27.4341 2.61652 26.8214C2.09169 26.5156 1.59556 26.1497 1.2154 25.7059C0.830791 25.2568 0.5 24.6471 0.5 23.9048V12.9524C0.5 11.4926 1.6432 10.5283 2.60625 9.95676C3.6679 9.32674 5.10425 8.81169 6.74744 8.39934C9.79324 7.635 13.8408 7.15278 18.2905 7.08081V6.38095C18.2905 5.02522 19.2275 4.05664 20.1294 3.4382C21.0792 2.7869 22.3553 2.26028 23.7972 1.84215ZM21.3111 6.38095C21.358 6.30546 21.487 6.14485 21.826 5.91238C22.405 5.51533 23.3411 5.098 24.6328 4.72345C27.196 3.98016 30.8249 3.5 34.8953 3.5C38.9656 3.5 42.5946 3.98016 45.1578 4.72345C46.4494 5.098 47.3855 5.51533 47.9646 5.91238C48.3036 6.14485 48.4325 6.30546 48.4794 6.38095C48.4325 6.45643 48.3036 6.61706 47.9646 6.84952C47.3855 7.24657 46.4494 7.66391 45.1578 8.03846C42.5946 8.78175 38.9656 9.2619 34.8953 9.2619C30.8249 9.2619 27.196 8.78175 24.6328 8.03846C23.3411 7.66391 22.405 7.24657 21.826 6.84952C21.487 6.61706 21.358 6.45643 21.3111 6.38095ZM48.5 9.98711C47.7588 10.3446 46.9095 10.6541 45.9933 10.9198C43.0895 11.7618 39.166 12.2619 34.8953 12.2619C30.6245 12.2619 26.7011 11.7618 23.7972 10.9198C22.881 10.6541 22.0317 10.3446 21.2905 9.98711V17.5438C21.3522 17.5897 21.4243 17.64 21.5086 17.6945C22.1325 18.0981 23.1257 18.5268 24.4644 18.9154C27.1219 19.6869 30.8379 20.2143 34.8953 20.2143C38.9527 20.2143 42.5798 19.6869 45.1464 18.9189C46.4393 18.532 47.386 18.1067 47.9752 17.7098C48.3427 17.4624 48.4646 17.3027 48.5 17.248V9.98711ZM48.5 20.8502C47.7652 21.2051 46.9211 21.5192 46.0064 21.793C43.1064 22.6607 39.1812 23.2143 34.8953 23.2143C30.6093 23.2143 26.605 22.6607 23.628 21.7964C22.7811 21.5506 21.992 21.2724 21.2905 20.962V26.8162C24.8884 26.9363 28.1561 27.4064 30.6675 28.1266C32.1237 28.5443 33.4112 29.0699 34.369 29.7196C34.8949 30.0763 35.4358 30.5519 35.7974 31.1544C39.4277 31.0712 42.688 30.571 45.0683 29.8695C46.3842 29.4817 47.3541 29.0547 47.9607 28.6544C48.3338 28.4082 48.4616 28.2482 48.5 28.1915V20.8502ZM33.2039 32.6667C33.1539 32.5895 33.0214 32.4305 32.6851 32.2024C32.0973 31.8037 31.1481 31.3854 29.8405 31.0104C27.2454 30.2661 23.573 29.7857 19.4545 29.7857C15.3361 29.7857 11.6637 30.2661 9.06863 31.0104C7.76095 31.3854 6.81183 31.8037 6.224 32.2024C5.88773 32.4305 5.75524 32.5895 5.70517 32.6667C5.75524 32.7438 5.88773 32.9029 6.224 33.1309C6.81183 33.5296 7.76095 33.9479 9.06863 34.323C11.6637 35.0672 15.3361 35.5476 19.4545 35.5476C23.573 35.5476 27.2454 35.0672 29.8405 34.323C31.1481 33.9479 32.0973 33.5296 32.6851 33.1309C33.0214 32.9029 33.1539 32.7438 33.2039 32.6667ZM5.68182 36.2615V43.4575C5.69543 43.4955 5.78262 43.6902 6.24191 44.0116C6.8287 44.4221 7.77552 44.8525 9.0806 45.2386C11.6713 46.0049 15.3394 46.5 19.4545 46.5C23.5695 46.5 27.2377 46.0044 29.8284 45.2378C31.1335 44.8516 32.0804 44.4211 32.6673 44.0106C33.1259 43.6897 33.2135 43.4953 33.2273 43.4571V36.2615C32.4726 36.6242 31.605 36.9378 30.6675 37.2067C27.7349 38.0478 23.771 38.5476 19.4545 38.5476C15.1381 38.5476 11.1742 38.0478 8.24155 37.2067C7.30409 36.9378 6.43652 36.6242 5.68182 36.2615ZM18.2905 26.7749V18.8239C13.8408 18.752 9.79324 18.2698 6.74744 17.5054C5.52824 17.1995 4.4229 16.837 3.5 16.4129V23.7614C3.58773 23.8613 3.7769 24.0254 4.12698 24.2294C4.84219 24.6462 5.97222 25.0826 7.48853 25.4752C10.2498 26.1902 14.0394 26.696 18.2905 26.7749ZM3.45965 23.7098C3.45966 23.7098 3.45991 23.7102 3.46035 23.711ZM3.57392 12.9524C3.66015 13.0418 3.82589 13.1833 4.13725 13.3681C4.84219 13.7864 5.96211 14.2153 7.47765 14.5956C10.2369 15.2881 14.0287 15.7516 18.2905 15.8235V10.0812C14.0287 10.1532 10.2369 10.6167 7.47765 11.3091C5.96211 11.6894 4.84219 12.1184 4.13725 12.5367C3.82589 12.7215 3.66015 12.8629 3.57392 12.9524Z" fill="#E9E9E9"/>
</svg>
