<svg width="27" height="26" viewBox="0 0 27 26" fill="none" xmlns="http://www.w3.org/2000/svg">
<path fill-rule="evenodd" clip-rule="evenodd" d="M9.78571 0C8.92376 0 8.09711 0.34241 7.48762 0.951903C6.87812 1.5614 6.53571 2.38805 6.53571 3.25V5.57143H4.21429C3.2292 5.57143 2.28445 5.96275 1.58789 6.65932C0.891325 7.35588 0.5 8.30062 0.5 9.28571V22.2857C0.5 23.2708 0.891325 24.2155 1.58789 24.9121C2.28445 25.6087 3.2292 26 4.21429 26H22.7857C23.7708 26 24.7155 25.6087 25.4121 24.9121C26.1087 24.2155 26.5 23.2708 26.5 22.2857V9.28571C26.5 8.30062 26.1087 7.35588 25.4121 6.65932C24.7155 5.96275 23.7708 5.57143 22.7857 5.57143H20.4643V3.25C20.4643 2.38805 20.1219 1.5614 19.5124 0.951903C18.9029 0.34241 18.0762 0 17.2143 0H9.78571ZM17.6786 5.57143V3.25C17.6786 3.12686 17.6297 3.00877 17.5426 2.9217C17.4555 2.83463 17.3374 2.78571 17.2143 2.78571H9.78571C9.66258 2.78571 9.54448 2.83463 9.45741 2.9217C9.37034 3.00877 9.32143 3.12686 9.32143 3.25V5.57143H17.6786ZM4.21429 8.35714H22.7857C23.032 8.35714 23.2682 8.45497 23.4423 8.62912C23.6165 8.80326 23.7143 9.03944 23.7143 9.28571V11.1429H3.28571V9.28571C3.28571 9.03944 3.38355 8.80326 3.55769 8.62912C3.73183 8.45497 3.96801 8.35714 4.21429 8.35714ZM3.28571 13.9286V22.2857C3.28571 22.532 3.38355 22.7682 3.55769 22.9423C3.73183 23.1165 3.96801 23.2143 4.21429 23.2143H22.7857C23.032 23.2143 23.2682 23.1165 23.4423 22.9423C23.6165 22.7682 23.7143 22.532 23.7143 22.2857V13.9286H15.3571V16.7143H11.6429V13.9286H3.28571Z" fill="#5B891F"/>
</svg>
