<svg width="50" height="46" viewBox="0 0 50 46" fill="none" xmlns="http://www.w3.org/2000/svg">
<path d="M23.3333 22.9869C23.3333 21.141 22.6823 19.565 21.3802 18.2589C20.0781 16.9529 18.5069 16.2998 16.6667 16.2998C14.8264 16.2998 13.2552 16.9529 11.9531 18.2589C10.651 19.565 10 21.141 10 22.9869C10 24.8329 10.651 26.4089 11.9531 27.7149C13.2552 29.021 14.8264 29.674 16.6667 29.674C18.5069 29.674 20.0781 29.021 21.3802 27.7149C22.6823 26.4089 23.3333 24.8329 23.3333 22.9869ZM43.3333 36.3612C43.3333 35.4556 43.0035 34.672 42.3438 34.0102C41.684 33.3485 40.9028 33.0176 40 33.0176C39.0972 33.0176 38.316 33.3485 37.6562 34.0102C36.9965 34.672 36.6667 35.4556 36.6667 36.3612C36.6667 37.2841 36.9922 38.0721 37.6432 38.7252C38.2943 39.3782 39.0799 39.7047 40 39.7047C40.9201 39.7047 41.7057 39.3782 42.3568 38.7252C43.0078 38.0721 43.3333 37.2841 43.3333 36.3612ZM43.3333 9.61272C43.3333 8.70717 43.0035 7.92353 42.3438 7.26178C41.684 6.60004 40.9028 6.26917 40 6.26917C39.0972 6.26917 38.316 6.60004 37.6562 7.26178C36.9965 7.92353 36.6667 8.70717 36.6667 9.61272C36.6667 10.5357 36.9922 11.3237 37.6432 11.9767C38.2943 12.6298 39.0799 12.9563 40 12.9563C40.9201 12.9563 41.7057 12.6298 42.3568 11.9767C43.0078 11.3237 43.3333 10.5357 43.3333 9.61272ZM33.3333 20.6099V25.4424C33.3333 25.6165 33.2726 25.7863 33.151 25.9517C33.0295 26.1172 32.8906 26.2086 32.7344 26.226L28.6979 26.8529C28.5069 27.4624 28.2292 28.1242 27.8646 28.8382C28.4549 29.674 29.2361 30.6754 30.2083 31.8421C30.3299 32.0337 30.3906 32.2078 30.3906 32.3646C30.3906 32.5735 30.3299 32.739 30.2083 32.8609C29.809 33.3833 29.0929 34.1626 28.0599 35.1987C27.0269 36.2349 26.3455 36.753 26.0156 36.753C25.8247 36.753 25.6424 36.692 25.4688 36.5701L22.474 34.2192C21.8316 34.5501 21.1632 34.82 20.4688 35.029C20.2778 36.9097 20.0781 38.2593 19.8698 39.0778C19.7483 39.4957 19.4878 39.7047 19.0885 39.7047H14.2448C14.0538 39.7047 13.8802 39.6394 13.724 39.5088C13.5677 39.3782 13.4809 39.2258 13.4635 39.0517L12.8646 35.0551C12.2743 34.8809 11.6233 34.611 10.9115 34.2453L7.83854 36.5701C7.71701 36.692 7.5434 36.753 7.31771 36.753C7.12674 36.753 6.94444 36.6833 6.77083 36.544C4.27083 34.2279 3.02083 32.8348 3.02083 32.3646C3.02083 32.2078 3.0816 32.0424 3.20312 31.8683C3.37674 31.6245 3.73264 31.163 4.27083 30.4838C4.80903 29.8047 5.21701 29.2735 5.49479 28.8904C5.09549 28.1242 4.79167 27.4102 4.58333 26.7484L0.625 26.1215C0.451389 26.1041 0.303819 26.0214 0.182292 25.8734C0.0607639 25.7253 0 25.5556 0 25.364V20.5315C0 20.3574 0.0607639 20.1876 0.182292 20.0221C0.303819 19.8567 0.442708 19.7653 0.598958 19.7479L4.63542 19.121C4.82639 18.5115 5.10417 17.8497 5.46875 17.1357C4.87847 16.2998 4.09722 15.2985 3.125 14.1317C3.00347 13.9402 2.94271 13.766 2.94271 13.6093C2.94271 13.4003 3.00347 13.2262 3.125 13.0869C3.50694 12.5645 4.21875 11.7895 5.26042 10.7621C6.30208 9.73462 6.98785 9.2209 7.31771 9.2209C7.50868 9.2209 7.69097 9.28185 7.86458 9.40375L10.8594 11.7547C11.4497 11.4412 12.1181 11.1626 12.8646 10.9188C13.0556 9.03805 13.2552 7.69714 13.4635 6.89608C13.5851 6.47814 13.8455 6.26917 14.2448 6.26917H19.0885C19.2795 6.26917 19.4531 6.33447 19.6094 6.46508C19.7656 6.59568 19.8524 6.74806 19.8698 6.9222L20.4688 10.9188C21.059 11.0929 21.7101 11.3629 22.4219 11.7286L25.4948 9.40375C25.6337 9.28185 25.8073 9.2209 26.0156 9.2209C26.2066 9.2209 26.3889 9.29055 26.5625 9.42987C29.0625 11.746 30.3125 13.1391 30.3125 13.6093C30.3125 13.7486 30.2517 13.9141 30.1302 14.1056C29.9219 14.3843 29.5573 14.8544 29.0365 15.5162C28.5156 16.1779 28.125 16.7004 27.8646 17.0835C28.2639 17.9194 28.559 18.6334 28.75 19.2254L32.7083 19.8262C32.8819 19.8611 33.0295 19.9525 33.151 20.1005C33.2726 20.2485 33.3333 20.4183 33.3333 20.6099ZM50 34.5326V38.1897C50 38.4683 48.7066 38.7382 46.1198 38.9994C45.9115 39.4696 45.651 39.9224 45.3385 40.3577C46.224 42.3256 46.6667 43.5272 46.6667 43.9625C46.6667 44.0322 46.6319 44.0931 46.5625 44.1454C44.4444 45.3818 43.3681 46 43.3333 46C43.1944 46 42.7951 45.5908 42.1354 44.7723C41.4757 43.9538 41.0243 43.3617 40.7812 42.996C40.434 43.0309 40.1736 43.0483 40 43.0483C39.8264 43.0483 39.566 43.0309 39.2188 42.996C38.9757 43.3617 38.5243 43.9538 37.8646 44.7723C37.2049 45.5908 36.8056 46 36.6667 46C36.6319 46 35.5556 45.3818 33.4375 44.1454C33.3681 44.0931 33.3333 44.0322 33.3333 43.9625C33.3333 43.5272 33.776 42.3256 34.6615 40.3577C34.349 39.9224 34.0885 39.4696 33.8802 38.9994C31.2934 38.7382 30 38.4683 30 38.1897V34.5326C30 34.254 31.2934 33.9841 33.8802 33.7229C34.1059 33.2179 34.3663 32.7651 34.6615 32.3646C33.776 30.3967 33.3333 29.1952 33.3333 28.7598C33.3333 28.6901 33.3681 28.6292 33.4375 28.5769C33.5069 28.5421 33.8108 28.368 34.349 28.0545C34.8872 27.7411 35.3993 27.445 35.8854 27.1664C36.3715 26.8878 36.6319 26.7484 36.6667 26.7484C36.8056 26.7484 37.2049 27.1533 37.8646 27.9631C38.5243 28.7729 38.9757 29.3606 39.2188 29.7263C39.566 29.6915 39.8264 29.674 40 29.674C40.1736 29.674 40.434 29.6915 40.7812 29.7263C41.6667 28.4899 42.4653 27.5147 43.1771 26.8007L43.3333 26.7484C43.4028 26.7484 44.4792 27.3579 46.5625 28.5769C46.6319 28.6292 46.6667 28.6901 46.6667 28.7598C46.6667 29.1952 46.224 30.3967 45.3385 32.3646C45.6337 32.7651 45.8941 33.2179 46.1198 33.7229C48.7066 33.9841 50 34.254 50 34.5326ZM50 7.78421V11.4412C50 11.7199 48.7066 11.9898 46.1198 12.251C45.9115 12.7212 45.651 13.174 45.3385 13.6093C46.224 15.5771 46.6667 16.7787 46.6667 17.2141C46.6667 17.2837 46.6319 17.3447 46.5625 17.3969C44.4444 18.6334 43.3681 19.2516 43.3333 19.2516C43.1944 19.2516 42.7951 18.8423 42.1354 18.0238C41.4757 17.2054 41.0243 16.6133 40.7812 16.2476C40.434 16.2824 40.1736 16.2998 40 16.2998C39.8264 16.2998 39.566 16.2824 39.2188 16.2476C38.9757 16.6133 38.5243 17.2054 37.8646 18.0238C37.2049 18.8423 36.8056 19.2516 36.6667 19.2516C36.6319 19.2516 35.5556 18.6334 33.4375 17.3969C33.3681 17.3447 33.3333 17.2837 33.3333 17.2141C33.3333 16.7787 33.776 15.5771 34.6615 13.6093C34.349 13.174 34.0885 12.7212 33.8802 12.251C31.2934 11.9898 30 11.7199 30 11.4412V7.78421C30 7.50558 31.2934 7.23566 33.8802 6.97445C34.1059 6.46943 34.3663 6.01666 34.6615 5.61613C33.776 3.64831 33.3333 2.44672 33.3333 2.01136C33.3333 1.9417 33.3681 1.88075 33.4375 1.82851C33.5069 1.79368 33.8108 1.61953 34.349 1.30608C34.8872 0.992618 35.3993 0.696574 35.8854 0.417944C36.3715 0.139315 36.6319 0 36.6667 0C36.8056 0 37.2049 0.404884 37.8646 1.21465C38.5243 2.02442 38.9757 2.61215 39.2188 2.97785C39.566 2.94302 39.8264 2.92561 40 2.92561C40.1736 2.92561 40.434 2.94302 40.7812 2.97785C41.6667 1.74143 42.4653 0.766231 43.1771 0.052243L43.3333 0C43.4028 0 44.4792 0.609502 46.5625 1.82851C46.6319 1.88075 46.6667 1.9417 46.6667 2.01136C46.6667 2.44672 46.224 3.64831 45.3385 5.61613C45.6337 6.01666 45.8941 6.46943 46.1198 6.97445C48.7066 7.23566 50 7.50558 50 7.78421Z" fill="#E9E9E9"/>
</svg>
