<svg width="921" height="619" viewBox="0 0 921 619" fill="none" xmlns="http://www.w3.org/2000/svg">
<path d="M587.096 249.796C613.591 286.309 589.201 350.382 582.183 369.691C732.203 336.338 693.601 134.114 676.932 60.7375C466.904 130.779 460.412 270.335 496.207 332.125C503.05 309.305 549.898 245.408 586.92 249.796H587.096Z" fill="#5B891F"/>
<path d="M370.751 180.457C389.701 206.437 372.155 252.429 367.242 266.297C474.625 242.423 447.077 97.6012 435.146 44.9387C284.775 95.1437 280.037 195.027 305.83 239.439C310.743 223.114 344.256 177.297 370.927 180.457H370.751Z" fill="#5B891F"/>
<path d="M211.783 101.112C223.714 118.666 211.256 148.684 207.572 157.637C278.809 144.295 263.895 48.274 257.227 13.3411C157.038 43.0077 151.775 108.836 167.742 138.678C171.426 127.97 194.412 98.6545 211.783 101.288V101.112Z" fill="#5B891F"/>
<path d="M370.4 505.912C408.826 529.083 470.765 499.417 489.364 490.64C469.01 643.186 264.246 622.121 189.85 611.764C241.611 396.549 380.051 378.117 444.621 408.486C422.512 417.263 362.855 469.399 370.4 506.087V505.912Z" fill="#5B891F"/>
<path d="M211.607 334.056C236.698 354.244 283.371 339.147 297.408 334.934C268.106 441.137 124.929 406.204 72.9922 391.634C130.719 243.828 230.733 244.354 273.721 272.265C257.227 276.303 209.677 307.549 211.432 334.232L211.607 334.056Z" fill="#5B891F"/>
<path d="M94.2231 207.49C109.488 222.236 141.071 215.039 150.546 212.932C125.28 280.867 33.1623 249.796 0 237.157C46.322 143.418 112.12 149.562 138.615 170.276C127.561 172.031 94.574 189.761 94.2231 207.315V207.49Z" fill="#5B891F"/>
<path d="M71.0621 57.0511C85.6255 55.9978 98.9606 73.7276 103.172 78.8183C119.665 31.9486 57.5515 7.89938 34.566 -3.33786e-06C17.8971 69.6901 55.0951 95.3192 78.256 96.0213C73.1677 90.2285 63.6927 66.5304 71.0621 57.0511Z" fill="#5B891F"/>
<path d="M100.013 95.6703C326.359 328.088 599.905 548.042 921 524.87V460.622C599.905 483.793 382.332 353.541 100.189 95.6703H100.013Z" fill="#5B891F"/>
</svg>
