<svg width="28" height="25" viewBox="0 0 28 25" fill="none" xmlns="http://www.w3.org/2000/svg">
<path d="M22.4 16.6667H19.6V19.4444H22.4M22.4 11.1111H19.6V13.8889H22.4M25.2 22.2222H14V19.4444H16.8V16.6667H14V13.8889H16.8V11.1111H14V8.33333H25.2M11.2 5.55556H8.4V2.77778H11.2M11.2 11.1111H8.4V8.33333H11.2M11.2 16.6667H8.4V13.8889H11.2M11.2 22.2222H8.4V19.4444H11.2M5.6 5.55556H2.8V2.77778H5.6M5.6 11.1111H2.8V8.33333H5.6M5.6 16.6667H2.8V13.8889H5.6M5.6 22.2222H2.8V19.4444H5.6M14 5.55556V0H0V25H28V5.55556H14Z" fill="#595656"/>
</svg>
