<svg width="240" height="111" viewBox="0 0 240 111" fill="none" xmlns="http://www.w3.org/2000/svg">
<path d="M0 26.355C2.18627 26.4157 3.30994 26.44 4.37255 26.44C5.06873 26.44 8.56189 26.355 9.35578 26.355C10.5039 26.355 11.7253 26.44 12.9711 26.841C16.0367 27.8131 18.4062 30.6806 18.4062 35.5044C18.4062 38.5543 17.6734 41.6284 15.5238 43.8033C13.5818 45.711 11.0046 46.4036 7.87791 46.4036C7.26722 46.4036 4.69011 46.3064 4.14048 46.3064C1.22138 46.3064 0.891609 46.3064 0.0122138 46.4036V45.5895C2.03971 45.5895 2.50383 45.5895 2.50383 43.1472V28.8702C2.50383 27.1812 2.01528 27.1812 0.0122138 27.1812V26.3671L0 26.355ZM5.25194 43.7547C5.25194 45.6259 6.16798 45.6259 7.0718 45.6259C9.05044 45.6259 11.0535 45.2614 12.568 44.0221C14.9009 42.1144 15.4261 38.4084 15.4261 36.1363C15.4261 32.9406 14.4856 30.1217 13.1543 28.7365C11.7253 27.2541 9.35578 26.9868 7.69471 26.9868C6.90081 26.9868 6.14355 27.0111 5.38629 27.0719C5.32522 27.5579 5.26416 28.3112 5.26416 29.7572V43.7426L5.25194 43.7547Z" fill="#BACA1E"/>
<path d="M221.631 40.6564C219.091 42.4911 214.633 40.8022 213.289 40.3161C215.61 50.705 229.68 48.0318 234.785 46.8775C229.912 32.3331 220.202 31.8836 215.903 34.3623C217.491 34.8362 221.936 38.0804 221.631 40.6442V40.6564Z" fill="#BACA1E"/>
<path d="M226.456 25.6745C224.648 26.9868 221.448 25.7718 220.483 25.4315C222.144 32.8677 232.221 30.9601 235.885 30.1338C232.392 19.7207 225.442 19.3927 222.352 21.1788C223.488 21.519 226.676 23.8398 226.456 25.6867V25.6745Z" fill="#BACA1E"/>
<path d="M231.964 14.666C230.743 15.4923 228.654 14.6296 228.031 14.3744C228.96 19.3076 235.64 18.2748 238.071 17.813C236.007 10.875 231.427 10.5105 229.35 11.6162C230.095 11.8714 232.135 13.4631 231.952 14.666H231.964Z" fill="#BACA1E"/>
<path d="M203.812 25.65C202.199 28.311 204.264 32.6002 204.874 33.8882C194.273 32.4787 195.738 18.2989 196.459 13.147C211.433 16.7314 212.715 26.3183 210.602 30.7897C209.992 29.2588 206.364 25.1275 203.812 25.65Z" fill="#BACA1E"/>
<path d="M215.756 14.6537C214.352 16.3913 215.402 19.6233 215.695 20.5954C208.306 18.5662 210.737 8.65129 211.75 5.05469C222.034 9.05226 221.998 15.9781 220.056 18.9551C219.775 17.8129 217.601 14.5201 215.744 14.6416L215.756 14.6537Z" fill="#BACA1E"/>
<path d="M224.563 6.52491C223.537 7.58202 224.038 9.76914 224.184 10.4253C219.457 8.67558 221.619 2.29648 222.499 0C229.021 3.20778 228.593 7.76428 227.152 9.59903C227.03 8.83354 225.796 6.54921 224.575 6.52491H224.563Z" fill="#BACA1E"/>
<path d="M235.043 4.92083C235.116 5.92934 233.882 6.85279 233.528 7.1444C236.789 8.28657 238.462 3.98523 239.012 2.39349C234.163 1.23918 232.38 3.81512 232.331 5.41901C232.734 5.06664 234.383 4.4105 235.043 4.92083Z" fill="#BACA1E"/>
<path d="M232.355 6.92578C216.184 22.588 200.892 41.543 202.492 63.7666H206.963C205.35 41.5309 214.413 26.4641 232.355 6.92578Z" fill="#BACA1E"/>
<path d="M22.0333 35.1159C22.0333 33.3297 21.3615 33.3297 20.1523 33.3297V32.5156C20.8485 32.5399 21.5447 32.6007 22.2531 32.6007C23.0714 32.6007 23.8898 32.5764 24.7081 32.5156C24.7081 33.1475 24.5249 36.1973 24.5249 36.8899V40.6687C24.5249 42.7465 24.7936 43.7428 25.502 44.4476C26.015 44.9579 26.8333 45.3224 27.5906 45.3224C28.531 45.3224 29.386 44.8729 29.96 44.2653C31.2303 42.9409 31.3891 40.6444 31.3891 39.4901V35.6505C31.3891 33.3905 30.7173 33.3297 29.8745 33.3297H28.299V32.5156C29.215 32.5764 29.8745 32.6007 30.3265 32.6007C31.6944 32.6007 33.3677 32.5399 34.0639 32.5156C34.0272 33.3054 33.8196 37.1329 33.8196 38.0077V42.2605C33.8196 45.371 34.3082 45.5776 35.4318 45.5776H36.3479V46.3917C36.1036 46.3552 34.8334 46.2945 34.015 46.2945C32.7082 46.2945 32.012 46.3552 31.499 46.3917L31.4379 43.7064H31.3768C30.6196 44.8486 29.3982 46.6712 26.247 46.6712C22.0577 46.6712 22.0577 44.0102 22.0577 42.139V35.1037L22.0333 35.1159Z" fill="#BACA1E"/>
<path d="M45.5331 28.7487C45.1667 28.7487 45.1423 28.5664 45.0812 27.8374C45.0445 27.2055 44.9346 25.8082 43.6888 25.8082C41.9911 25.8082 41.9911 27.9832 41.9911 28.3477C41.9911 28.9552 42.1377 31.8836 42.1377 32.5397C42.6873 32.5397 42.9316 32.5154 43.9575 32.4789V33.3538L42.1377 33.293V41.6527C42.1377 45.5774 42.3453 45.5774 44.3239 45.5774V46.3915C44.0552 46.355 42.3819 46.2942 41.4659 46.2942C39.585 46.2942 38.3392 46.355 37.8262 46.3915V45.5774C39.0964 45.5774 39.7071 45.5774 39.7071 43.6697V33.2809H37.8262V32.5275C39.5239 32.5275 39.7071 32.5275 39.7071 29.8422C39.7071 28.4206 39.8537 27.643 40.4399 26.8775C40.8674 26.3064 42.2354 24.8848 45.24 24.8848C45.6064 24.8848 46.9133 24.8848 46.9133 25.5531V28.6393L45.5453 28.7244L45.5331 28.7487Z" fill="#BACA1E"/>
<path d="M59.3712 38.8945C59.3712 43.2444 56.8551 46.683 52.3238 46.683C47.7925 46.683 46.0703 43.1229 46.0703 39.9151C46.0703 36.1363 48.3421 32.248 52.8734 32.248C57.9177 32.248 59.3712 35.6624 59.3712 38.8945ZM48.7207 39.2468C48.7207 43.8033 50.6016 45.8932 52.7268 45.8932C53.7284 45.8932 56.733 45.1642 56.733 39.5871C56.733 36.0269 55.4261 32.9771 52.7879 32.9771C49.5757 32.9771 48.7207 36.598 48.7207 39.259V39.2468Z" fill="#BACA1E"/>
<path d="M63.1085 35.1159C63.1085 33.3297 62.4367 33.3297 61.2275 33.3297V32.5156C61.9237 32.5399 62.6199 32.6007 63.3283 32.6007C64.1466 32.6007 64.965 32.5764 65.7833 32.5156C65.7833 33.1475 65.6001 36.1973 65.6001 36.8899V40.6687C65.6001 42.7465 65.8688 43.7428 66.5772 44.4476C67.0902 44.9579 67.9085 45.3224 68.6658 45.3224C69.6062 45.3224 70.4612 44.8729 71.0352 44.2653C72.3055 42.9409 72.4643 40.6444 72.4643 39.4901V35.6505C72.4643 33.3905 71.7925 33.3297 70.9497 33.3297H69.3742V32.5156C70.2902 32.5764 70.9497 32.6007 71.4139 32.6007C72.7818 32.6007 74.4551 32.5399 75.1513 32.5156C75.1146 33.3054 74.907 37.1329 74.907 38.0077V42.2605C74.907 45.371 75.3956 45.5776 76.5192 45.5776H77.4353V46.3917C77.191 46.3552 75.9208 46.2945 75.1024 46.2945C73.7956 46.2945 73.0994 46.3552 72.5864 46.3917L72.5253 43.7064H72.4643C71.707 44.8486 70.4856 46.6712 67.3344 46.6712C63.1451 46.6712 63.1451 44.0102 63.1451 42.139V35.1037L63.1085 35.1159Z" fill="#BACA1E"/>
<path d="M83.1148 35.5408C83.2003 35.3586 83.298 35.2735 83.6033 34.7875C84.8125 32.8555 85.2156 32.3452 87.6705 32.3452C88.1835 32.3452 88.7942 32.3695 89.3072 32.491L89.124 36.1727H88.3912C88.3667 35.5408 88.3301 34.4837 86.3881 34.4837C84.5682 34.4837 83.0781 34.9333 83.0781 39.1617V42.2966C83.0781 45.4679 83.6522 45.5894 84.5927 45.5894H86.4125V46.4035C84.9224 46.3063 83.469 46.3063 82.2232 46.3063C80.159 46.3063 79.5239 46.3428 78.6445 46.4035V45.5894C79.9758 45.5894 80.6232 45.5894 80.6232 43.7182V35.4193C80.6232 33.3416 80.0491 33.3416 78.8033 33.3416V32.5275C79.7193 32.6125 80.2568 32.6125 80.7453 32.6125C81.4781 32.6125 82.2354 32.6125 82.956 32.5275L83.0415 35.553H83.1026L83.1148 35.5408Z" fill="#BACA1E"/>
<path d="M96.501 26.355C98.6872 26.4157 99.8109 26.44 100.874 26.44C101.57 26.44 105.063 26.355 105.857 26.355C107.005 26.355 108.226 26.44 109.472 26.841C112.538 27.8131 114.907 30.6806 114.907 35.5044C114.907 38.5543 114.174 41.6284 112.025 43.8033C110.083 45.711 107.506 46.4036 104.379 46.4036C103.768 46.4036 101.191 46.3064 100.641 46.3064C97.7224 46.3064 97.3926 46.3064 96.5132 46.4036V45.5895C98.5407 45.5895 99.0048 45.5895 99.0048 43.1472V28.8702C99.0048 27.1812 98.5162 27.1812 96.5132 27.1812V26.3671L96.501 26.355ZM101.753 43.7547C101.753 45.6259 102.669 45.6259 103.573 45.6259C105.551 45.6259 107.554 45.2614 109.069 44.0221C111.402 42.1144 111.927 38.4084 111.927 36.1363C111.927 32.9406 110.987 30.1217 109.655 28.7365C108.226 27.2541 105.857 26.9868 104.196 26.9868C103.402 26.9868 102.645 27.0111 101.887 27.0719C101.826 27.5579 101.765 28.3112 101.765 29.7572V43.7426L101.753 43.7547Z" fill="#BACA1E"/>
<path d="M118.535 35.1159C118.535 33.3297 117.863 33.3297 116.654 33.3297V32.5156C117.35 32.5399 118.047 32.6007 118.743 32.6007C119.561 32.6007 120.38 32.5764 121.198 32.5156C121.198 33.1475 121.015 36.1973 121.015 36.8899V40.6687C121.015 42.7465 121.283 43.7428 121.98 44.4476C122.493 44.9579 123.311 45.3224 124.068 45.3224C125.009 45.3224 125.864 44.8729 126.438 44.2653C127.708 42.9409 127.867 40.6444 127.867 39.4901V35.6505C127.867 33.3905 127.195 33.3297 126.352 33.3297H124.776V32.5156C125.693 32.5764 126.352 32.6007 126.804 32.6007C128.172 32.6007 129.845 32.5399 130.541 32.5156C130.517 33.3054 130.297 37.1329 130.297 38.0077V42.2605C130.297 45.371 130.786 45.5776 131.909 45.5776H132.825V46.3917C132.581 46.3552 131.311 46.2945 130.493 46.2945C129.186 46.2945 128.489 46.3552 127.977 46.3917L127.915 43.7064H127.854C127.097 44.8486 125.876 46.6712 122.725 46.6712C118.535 46.6712 118.535 44.0102 118.535 42.139V35.1037V35.1159Z" fill="#BACA1E"/>
<path d="M136.026 35.2006C136.026 33.3294 135.451 33.3294 134.413 33.3294V32.5153C135.439 32.6004 135.781 32.6004 136.172 32.6004C136.844 32.6004 137.662 32.6004 138.48 32.5153L138.627 34.8968H138.688C140.264 32.3938 141.717 32.2358 142.902 32.2358C148.056 32.2358 148.178 37.7887 148.178 38.8458C148.178 43.8033 144.722 46.6708 141.619 46.6708C140.532 46.6708 139.433 46.4035 138.468 45.9175V48.0317C138.468 50.717 138.676 51.118 140.41 51.118H141.717V51.9321C140.471 51.8713 138.713 51.847 137.467 51.847C135.671 51.847 134.914 51.9078 134.071 51.9321V51.118C134.951 51.118 135.256 51.118 135.586 50.6319C136.013 49.9637 136.013 47.4971 136.013 46.0147V35.2006H136.026ZM141.387 45.7717C143.879 45.7717 145.699 42.8434 145.699 39.4898C145.699 36.8652 144.49 33.8397 141.839 33.8397C140.044 33.8397 138.346 35.2614 138.346 39.186C138.346 41.7498 138.554 43.4752 138.651 44.3136C139.14 44.8604 139.983 45.7595 141.387 45.7595V45.7717Z" fill="#BACA1E"/>
<path d="M161.637 41.6647C161.576 42.418 161.491 43.3293 160.782 44.3864C159.537 46.2576 157.204 46.6829 155.775 46.6829C151.195 46.6829 150.01 43.2442 150.01 40.0365C150.01 36.1726 152.013 32.2479 156.691 32.2479C161.369 32.2479 161.637 36.3548 161.723 38.226H152.501C152.477 38.3718 152.44 39.0158 152.44 39.4289C152.44 42.418 154.016 45.164 157.057 45.164C157.875 45.164 160.672 44.921 161.002 41.6647H161.637ZM156.569 37.4362C158.242 37.4362 158.84 37.1932 158.84 36.2941C158.84 35.5043 158.388 32.9769 156.104 32.9769C154.737 32.9769 153.063 34.277 152.611 37.4484H156.556L156.569 37.4362ZM153.54 29.915C154.211 29.2831 156.117 27.4727 157.79 25.6865L160.282 26.3548C157.216 28.3718 155.726 29.2588 154.065 30.2187L153.552 29.915H153.54Z" fill="#BACA1E"/>
<path d="M167.623 35.5408C167.72 35.3586 167.806 35.2735 168.111 34.7875C169.32 32.8555 169.723 32.3452 172.178 32.3452C172.691 32.3452 173.302 32.3695 173.815 32.491L173.632 36.1727H172.899C172.862 35.5408 172.838 34.4837 170.896 34.4837C169.076 34.4837 167.586 34.9333 167.586 39.1617V42.2966C167.586 45.4679 168.16 45.5894 169.1 45.5894H170.92V46.4035C169.43 46.3063 167.977 46.3063 166.731 46.3063C164.667 46.3063 164.032 46.3428 163.152 46.4035V45.5894C164.484 45.5894 165.131 45.5894 165.131 43.7182V35.4193C165.131 33.3416 164.557 33.3416 163.311 33.3416V32.5275C164.227 32.6125 164.765 32.6125 165.253 32.6125C165.986 32.6125 166.743 32.6125 167.464 32.5275L167.549 35.553H167.61L167.623 35.5408Z" fill="#BACA1E"/>
<path d="M186.921 41.6647C186.859 42.418 186.774 43.3293 186.066 44.3864C184.82 46.2576 182.487 46.6829 181.058 46.6829C176.478 46.6829 175.293 43.2442 175.293 40.0365C175.293 36.1726 177.296 32.2479 181.974 32.2479C186.652 32.2479 186.921 36.3548 187.006 38.226H177.785C177.76 38.3718 177.724 39.0158 177.724 39.4289C177.724 42.418 179.299 45.164 182.34 45.164C183.159 45.164 185.956 44.921 186.285 41.6647H186.921ZM181.852 37.4362C183.525 37.4362 184.124 37.1932 184.124 36.2941C184.124 35.5043 183.672 32.9769 181.388 32.9769C180.02 32.9769 178.346 34.277 177.894 37.4484H181.84L181.852 37.4362ZM178.823 29.915C179.495 29.2831 181.4 27.4727 183.073 25.6865L185.565 26.3548C182.499 28.3718 181.009 29.2588 179.348 30.2187L178.835 29.915H178.823Z" fill="#BACA1E"/>
<path d="M163.86 99.854H164.923L170.749 108.262H170.773V99.854H171.726V109.793H170.663L164.837 101.385H164.813V109.793H163.86V99.854Z" fill="#595656"/>
<path d="M177.919 99.6475C181.058 99.6475 182.621 102.114 182.621 104.824C182.621 107.533 181.058 110 177.919 110C174.78 110 173.204 107.533 173.204 104.824C173.204 102.114 174.767 99.6475 177.919 99.6475ZM177.919 109.198C180.557 109.198 181.668 106.999 181.668 104.824C181.668 102.649 180.545 100.449 177.919 100.449C175.293 100.449 174.157 102.649 174.157 104.824C174.157 106.999 175.28 109.198 177.919 109.198Z" fill="#595656"/>
<path d="M183.036 99.854H190.963V100.656H187.482V109.793H186.529V100.656H183.048V99.854H183.036Z" fill="#595656"/>
<path d="M193.869 99.854H194.932L198.853 109.793H197.827L196.605 106.695H192.05L190.84 109.793H189.814L193.845 99.854H193.869ZM192.367 105.893H196.3L194.37 100.79L192.367 105.893Z" fill="#595656"/>
<path d="M199.842 99.854H200.794V109.793H199.842V99.854Z" fill="#595656"/>
<path d="M202.884 99.854H207.464C209.113 99.854 210.505 100.644 210.505 102.442C210.505 103.694 209.846 104.726 208.563 104.982V105.006C209.87 105.176 210.249 106.063 210.31 107.242C210.346 107.922 210.346 109.295 210.774 109.793H209.724C209.491 109.404 209.491 108.663 209.455 108.25C209.369 106.853 209.259 105.31 207.452 105.383H203.836V109.793H202.884V99.854ZM203.836 104.568H207.391C208.551 104.568 209.54 103.839 209.54 102.637C209.54 101.434 208.807 100.656 207.391 100.656H203.836V104.568Z" fill="#595656"/>
<path d="M212.228 99.854H219.128V100.656H213.18V104.252H218.75V105.054H213.18V108.979H219.202V109.781H212.228V99.8418V99.854Z" fill="#595656"/>
<path d="M220.984 106.525C220.935 108.566 222.425 109.198 224.245 109.198C225.295 109.198 226.895 108.627 226.895 107.181C226.895 106.051 225.76 105.613 224.831 105.383L222.608 104.836C221.436 104.544 220.349 103.985 220.349 102.442C220.349 101.47 220.984 99.6475 223.793 99.6475C225.772 99.6475 227.506 100.705 227.494 102.746H226.541C226.492 101.227 225.222 100.462 223.818 100.462C222.511 100.462 221.314 100.96 221.314 102.442C221.314 103.378 222.01 103.767 222.828 103.961L225.259 104.556C226.676 104.933 227.848 105.541 227.848 107.181C227.848 107.861 227.567 110.024 224.025 110.024C221.656 110.024 219.921 108.967 220.031 106.537H220.984V106.525Z" fill="#595656"/>
<path d="M157.729 104.593H1.03809" stroke="#595656" stroke-miterlimit="10"/>
<path d="M35.3957 63.5721C35.3957 62.2355 35.8476 61.1419 36.7392 60.2914C37.6309 59.4287 38.779 59.0034 40.1591 59.0034C41.2828 59.0034 42.2355 59.3558 43.0294 60.0727C43.8233 60.7896 44.2141 61.6401 44.2141 62.6365C44.2141 64.3376 43.0049 65.8078 40.5988 67.0715C42.0034 68.2744 43.7256 70.1091 45.7653 72.5879C46.7546 70.9111 47.2431 69.5137 47.2431 68.408C47.2431 67.7883 47.1332 67.3509 46.9256 67.1079C46.7179 66.8649 46.3271 66.7191 45.7653 66.6948V66.1116H51.4935V66.6948C50.6019 66.6948 49.9912 66.8163 49.6737 67.0715C49.3561 67.3266 49.063 67.6425 48.8187 68.0314C48.5622 68.4202 48.2569 69.0885 47.8782 70.0484C47.3531 71.4214 46.8279 72.515 46.3027 73.3048C47.6095 74.9451 48.5256 75.9901 49.0508 76.4639C49.5882 76.9257 50.0279 77.1687 50.3943 77.1687C50.8096 77.1687 51.2615 76.9378 51.7622 76.4639L52.2264 76.8406C51.4203 78.0192 50.3577 78.6024 49.0386 78.6024C48.4645 78.6024 47.9149 78.4566 47.4019 78.165C46.8767 77.8734 46.2294 77.278 45.4355 76.3789C45.1179 76.0144 44.8736 75.7592 44.7149 75.5891C43.0538 77.5939 41.1118 78.5903 38.8767 78.5903C37.3133 78.5903 35.982 78.1043 34.8827 77.1444C33.7835 76.1845 33.2461 75.0058 33.2461 73.6207C33.2461 72.6 33.6247 71.5915 34.382 70.6195C35.1392 69.6474 36.2263 68.7604 37.6309 67.9949C36.1286 66.6097 35.3835 65.1395 35.3835 63.5842L35.3957 63.5721ZM35.6644 72.3813C35.6644 73.5478 36.1408 74.617 37.1057 75.5891C38.0706 76.5611 39.1332 77.035 40.3179 77.035C41.0385 77.035 41.6981 76.8771 42.3087 76.5368C42.9194 76.2088 43.5668 75.662 44.2507 74.8965C42.0523 72.199 40.0248 70.0605 38.1805 68.4931C37.4354 68.8941 36.837 69.453 36.3728 70.1699C35.9087 70.8868 35.6766 71.6158 35.6766 72.3692L35.6644 72.3813ZM37.1057 62.4664C37.1057 63.0617 37.3744 63.73 37.9118 64.4834C38.4492 65.2367 39.1576 65.9657 40.0614 66.6462C41.6003 65.7592 42.382 64.4955 42.382 62.8673C42.382 62.0289 42.1378 61.3363 41.6492 60.8017C41.1606 60.2671 40.5133 59.9998 39.7316 59.9998C38.9499 59.9998 38.3515 60.2306 37.8629 60.6924C37.3744 61.1541 37.1301 61.7495 37.1301 62.4664H37.1057Z" fill="#595656"/>
<path d="M108.495 71.2759C108.495 75.3464 106.137 78.5784 101.899 78.5784C97.6611 78.5784 96.0488 75.237 96.0488 72.2479C96.0488 68.7121 98.1862 65.0669 102.412 65.0669C107.127 65.0669 108.495 68.2625 108.495 71.288V71.2759ZM98.516 71.6161C98.516 75.881 100.275 77.8372 102.266 77.8372C103.206 77.8372 106.015 77.1568 106.015 71.932C106.015 68.5906 104.794 65.7352 102.315 65.7352C99.2977 65.7352 98.5038 69.1252 98.5038 71.6161H98.516Z" fill="#595656"/>
<path d="M143.171 73.8881C143.11 74.5928 143.024 75.4434 142.377 76.4276C141.216 78.1773 139.018 78.5782 137.687 78.5782C133.4 78.5782 132.288 75.3462 132.288 72.3571C132.288 68.7362 134.169 65.0667 138.542 65.0667C142.914 65.0667 143.171 68.9185 143.256 70.6682H134.609C134.584 70.814 134.548 71.4093 134.548 71.7982C134.548 74.5928 136.026 77.1688 138.871 77.1688C139.641 77.1688 142.255 76.9379 142.572 73.8881H143.171ZM138.432 69.927C139.995 69.927 140.569 69.6961 140.569 68.8577C140.569 68.1165 140.142 65.7471 138.004 65.7471C136.722 65.7471 135.158 66.9622 134.731 69.9391H138.419L138.432 69.927ZM135.586 62.8796C136.209 62.2842 138.004 60.5952 139.568 58.9185L141.9 59.5381C139.03 61.4336 137.638 62.2599 136.074 63.159L135.598 62.8796H135.586Z" fill="#595656"/>
<path d="M71.5117 75.0666C71.5117 77.4117 71.5972 77.6668 73.6491 77.7033V78.4688C73.3071 78.408 72.1101 78.3837 71.5972 78.3837C70.7788 78.3837 70.0094 78.4445 69.4109 78.4688L69.0689 76.7191C67.188 77.9585 66.2597 78.5903 64.6964 78.5903C62.3024 78.5903 61.0566 76.9256 61.0566 74.7385C61.0566 74.4348 61.0566 72.7094 62.107 72.0289C63.5238 71.0933 67.4811 70.6438 69.191 70.4979V68.3716C69.191 66.0265 67.6032 65.7713 66.5773 65.7713C64.3666 65.7713 64.1589 66.8163 64.0246 67.8126C63.9391 68.3473 63.8536 68.8576 63.4261 69.0034C63.3406 69.0277 61.9238 69.1735 61.7773 69.1735V66.9135C61.7773 65.2489 65.9544 65.2124 66.7483 65.2124C71.2063 65.2124 71.5239 66.9986 71.5239 69.3679V75.0787L71.5117 75.0666ZM69.1788 71.0569C64.9406 71.713 63.6948 72.6122 63.6948 74.8722C63.6948 77.1322 65.2582 77.3874 65.8322 77.3874C66.9681 77.3874 68.104 76.7312 68.5071 76.3424C69.191 75.662 69.191 74.6413 69.191 73.8515V71.0569H69.1788Z" fill="#595656"/>
<path d="M76.9839 73.8032C77.0084 77.6185 79.5122 77.8251 80.1962 77.8251C81.845 77.8251 82.871 76.7194 82.871 75.5043C82.871 74.2893 81.9916 73.5238 79.4633 72.2479C77.6435 71.3123 76.0801 70.5225 76.0801 68.542C76.0801 68.1167 76.2267 66.7558 77.4969 65.9174C78.8282 65.0669 80.4038 65.0669 81.0756 65.0669C82.4435 65.0669 83.5428 65.237 84.4588 65.3828L84.2878 69.2589H83.5183C83.5183 66.5371 82.1015 65.7473 80.6237 65.7473C79.1458 65.7473 78.1198 66.5736 78.1198 67.8129C78.1198 68.8579 78.8038 69.429 80.929 70.4375C83.2374 71.5432 84.8252 72.5274 84.8252 74.6538C84.8252 76.8895 83.0054 78.5906 79.6466 78.5906C78.3397 78.5906 77.5458 78.3962 76.0068 77.9952C76.0923 75.8688 76.0923 75.7352 76.1534 73.8154H76.9839V73.8032Z" fill="#595656"/>
<path d="M87.2798 73.8032C87.3043 77.6185 89.8081 77.8251 90.4921 77.8251C92.1409 77.8251 93.1669 76.7194 93.1669 75.5043C93.1669 74.2893 92.2875 73.5238 89.7592 72.2479C87.9394 71.3123 86.376 70.5225 86.376 68.542C86.376 68.1167 86.5226 66.7558 87.7928 65.9174C89.1241 65.0669 90.6875 65.0669 91.3715 65.0669C92.7394 65.0669 93.8387 65.237 94.7547 65.3828L94.5837 69.2589H93.8142C93.8142 66.5371 92.3974 65.7473 90.9196 65.7473C89.4417 65.7473 88.4157 66.5736 88.4157 67.8129C88.4157 68.8579 89.0997 69.429 91.2249 70.4375C93.5333 71.5432 95.1211 72.5274 95.1211 74.6538C95.1211 76.8895 93.3012 78.5906 89.9424 78.5906C88.6356 78.5906 87.8417 78.3962 86.3027 77.9952C86.3882 75.8688 86.3882 75.7352 86.4493 73.8154H87.2798V73.8032Z" fill="#595656"/>
<path d="M146.493 73.8032C146.517 77.6185 149.021 77.8251 149.705 77.8251C151.354 77.8251 152.38 76.7194 152.38 75.5043C152.38 74.2893 151.5 73.5238 148.972 72.2479C147.152 71.3123 145.589 70.5225 145.589 68.542C145.589 68.1167 145.735 66.7558 147.006 65.9174C148.337 65.0669 149.9 65.0669 150.584 65.0669C151.952 65.0669 153.052 65.237 153.968 65.3828L153.797 69.2589H153.027C153.027 66.5371 151.61 65.7473 150.132 65.7473C148.655 65.7473 147.629 66.5736 147.629 67.8129C147.629 68.8579 148.313 69.429 150.438 70.4375C152.746 71.5432 154.334 72.5274 154.334 74.6538C154.334 76.8895 152.514 78.5906 149.155 78.5906C147.848 78.5906 147.055 78.3962 145.516 77.9952C145.601 75.8688 145.601 75.7352 145.662 73.8154H146.481L146.493 73.8032Z" fill="#595656"/>
<path d="M122.773 65.0546V69.5625H122.15C121.882 68.3961 121.356 67.4605 120.599 66.78C119.83 66.0996 118.914 65.7594 117.851 65.7594C116.581 65.7594 115.543 66.2575 114.736 67.2418C113.93 68.226 113.527 69.5018 113.527 71.0814C113.527 72.8189 114.004 74.3256 114.956 75.5893C115.909 76.8529 117.033 77.4848 118.34 77.4848C119.219 77.4848 120.074 77.2539 120.929 76.78C121.784 76.3183 122.517 75.6622 123.127 74.8238V75.7594C121.735 77.6427 119.854 78.5783 117.46 78.5783C115.567 78.5783 114.016 77.9829 112.819 76.78C111.622 75.5771 111.023 74.0218 111.023 72.1142C111.023 70.2065 111.671 68.4811 112.965 67.1081C114.26 65.7351 115.811 65.0546 117.643 65.0546C118.462 65.0546 119.365 65.2126 120.367 65.5407C120.807 65.6865 121.1 65.7472 121.271 65.7472C121.637 65.7472 121.93 65.5164 122.138 65.0425H122.761L122.773 65.0546Z" fill="#595656"/>
<path d="M128.453 66.2819H129.039V76.3669C129.039 77.023 129.186 77.4726 129.467 77.6913C129.748 77.91 130.273 78.0194 131.042 78.0194V78.5783H124.459V78.0194C125.424 78.0194 126.047 77.91 126.315 77.7035C126.596 77.4848 126.731 77.0473 126.731 76.3669V69.0036C126.731 68.2746 126.609 67.8007 126.352 67.5698C126.096 67.339 125.461 67.2175 124.459 67.2175V66.6585L128.453 66.294V66.2819ZM127.928 60.0972C128.331 60.0972 128.685 60.2308 128.966 60.5103C129.247 60.7898 129.393 61.13 129.393 61.5431C129.393 61.9562 129.247 62.2964 128.966 62.5881C128.685 62.8797 128.331 63.0255 127.94 63.0255C127.549 63.0255 127.183 62.8797 126.877 62.5881C126.572 62.2964 126.425 61.9441 126.425 61.5431C126.425 61.1421 126.572 60.7898 126.865 60.5103C127.158 60.2308 127.512 60.0972 127.928 60.0972Z" fill="#595656"/>
</svg>
