<svg width="629" height="153" viewBox="0 0 629 153" fill="none" xmlns="http://www.w3.org/2000/svg">
<path d="M588.242 95.6182C582.284 99.9333 571.829 95.9611 568.679 94.8181C574.121 119.251 607.117 112.964 619.09 110.25C607.661 76.0431 584.89 74.9857 574.808 80.8154C578.532 81.9299 588.958 89.5599 588.242 95.5896V95.6182Z" fill="#5B891F"/>
<path d="M599.555 60.3829C595.316 63.4692 587.812 60.6115 585.549 59.8114C589.445 77.3004 613.075 72.8139 621.668 70.8706C613.476 46.3803 597.178 45.6087 589.932 49.8095C592.595 50.6096 600.071 56.0678 599.555 60.4115V60.3829Z" fill="#5B891F"/>
<path d="M612.502 34.4923C609.638 36.4355 604.74 34.4066 603.279 33.8064C605.456 45.4086 621.123 42.9796 626.823 41.8937C621.983 25.5763 611.242 24.719 606.372 27.3195C608.12 27.9196 612.903 31.6632 612.473 34.4923H612.502Z" fill="#5B891F"/>
<path d="M546.452 60.3258C542.671 66.5841 547.512 76.6717 548.944 79.7009C524.054 76.386 527.491 43.0368 529.181 30.9202C564.297 39.3503 567.304 61.8975 562.349 72.4138C560.917 68.8131 552.41 59.097 546.424 60.3258H546.452Z" fill="#5B891F"/>
<path d="M574.493 34.4637C571.199 38.5502 573.663 46.1516 574.35 48.4378C557.021 43.6655 562.721 20.3467 565.098 11.888C589.216 21.2898 589.13 37.5786 584.575 44.5799C583.917 41.8937 578.818 34.1494 574.465 34.4351L574.493 34.4637Z" fill="#5B891F"/>
<path d="M595.145 15.3458C592.739 17.832 593.913 22.9758 594.257 24.519C583.172 20.4039 588.242 5.40103 590.304 0C605.599 7.54429 604.597 18.2606 601.217 22.5757C600.93 20.7754 598.037 15.4029 595.173 15.3458H595.145Z" fill="#5B891F"/>
<path d="M619.691 11.5736C619.863 13.9455 616.97 16.1174 616.14 16.8032C623.787 19.4894 627.711 9.37321 629 5.62964C617.629 2.91484 613.447 8.97314 613.333 12.7453C614.278 11.9166 618.144 10.3734 619.691 11.5736Z" fill="#5B891F"/>
<path d="M613.39 16.2888C575.467 53.153 539.578 97.7043 543.359 150H553.842C550.061 97.7043 571.314 62.269 613.39 16.3174V16.2888Z" fill="#5B891F"/>
<path d="M66.1 91H51.1L21.8 40.6V91H6.8V18.1H22.2L51.1 67.7V18.1H66.1V91ZM147.345 55C147.345 76.3 133.445 92.2 112.245 92.2C90.8445 92.2 77.1445 76.3 77.1445 54.5C77.1445 33.6 90.7445 16.9 112.145 16.9C133.445 16.9 147.345 33 147.345 55ZM132.345 54.9C132.345 39.7 124.545 29.7 112.245 29.7C100.145 29.7 92.1445 39.8 92.1445 54.5C92.1445 69.8 100.145 79.4 112.245 79.4C124.245 79.4 132.345 69.8 132.345 54.9ZM208.823 30.6H187.523V91H172.523V30.6H150.423V18.1H208.823V30.6ZM271.96 91H256.56L251.76 76.3H224.46L219.56 91H204.26L230.16 18.1H246.76L271.96 91ZM247.66 63.8L238.16 35.3L228.66 63.8H247.66ZM295.128 91H280.128V18.1H295.128V91ZM369.36 91H353.26C351.36 87.5 350.96 85.3 350.96 78.5L351.16 70.8C351.16 64.7 348.36 62.1 341.86 62.1H324.66V91H309.66V18.1H348.76C361.66 18.1 368.36 26.5 368.36 37.8C368.36 46.7 364.26 52.6 356.06 55.8C365.36 59.8 365.76 60.8 366.16 82.3C366.16 85.5 367.06 87 369.36 88.3V91ZM353.36 39.9C353.36 33.6 350.96 30.6 342.76 30.6H324.66V49.6H342.76C351.26 49.6 353.36 46.4 353.36 39.9ZM436.228 91H381.728V18.1H434.428V30.6H396.728V47.1H431.628V59.6H396.728V78.5H436.228V91ZM503.827 69.1C503.827 83.9 492.727 92.2 473.927 92.2C455.327 92.2 443.727 83.7 443.727 68.1H458.327C458.327 75.9 464.527 80.2 474.727 80.2C483.827 80.2 489.427 77 489.427 70.9C489.427 65 485.727 62.9 475.727 60.9L465.527 58.9C450.727 56 445.027 50.7 445.027 39.3C445.027 25.1 455.127 16.9 472.627 16.9C490.427 16.9 501.227 24.9 501.227 40.3H487.227C487.227 32.9 481.427 28.9 471.927 28.9C464.227 28.9 459.327 32.4 459.327 37.9C459.327 43.2 462.427 45.3 473.127 47.4L484.527 49.6C498.027 52.2 503.827 57.6 503.827 69.1Z" fill="#313131"/>
<path d="M6.80322 142V141.151H7.97363C9.28939 141.151 10.2227 140.73 10.7734 139.889C11.11 139.384 11.2783 138.252 11.2783 136.492V116.389C11.2783 114.446 11.0641 113.229 10.6357 112.74C10.0391 112.067 9.15169 111.73 7.97363 111.73H6.80322V110.881H19.4712C24.1222 110.881 27.6564 111.409 30.0737 112.464C32.5063 113.52 34.457 115.279 35.9258 117.743C37.4098 120.206 38.1519 123.052 38.1519 126.28C38.1519 130.61 36.8361 134.228 34.2046 137.135C31.2518 140.378 26.7537 142 20.7104 142H6.80322ZM15.6846 139.751C17.6276 140.179 19.257 140.394 20.5728 140.394C24.1222 140.394 27.0674 139.147 29.4082 136.653C31.749 134.159 32.9194 130.778 32.9194 126.509C32.9194 122.21 31.749 118.821 29.4082 116.343C27.0674 113.864 24.061 112.625 20.3892 112.625C19.0122 112.625 17.444 112.847 15.6846 113.291V139.751ZM59.8618 120.979V133.715C59.8618 136.148 59.9154 137.64 60.0225 138.19C60.1449 138.726 60.3285 139.101 60.5732 139.315C60.8333 139.529 61.1317 139.636 61.4683 139.636C61.9425 139.636 62.478 139.506 63.0747 139.246L63.396 140.049L57.1079 142.643H56.0752V138.19C54.2699 140.149 52.8929 141.38 51.9443 141.885C50.9958 142.39 49.9937 142.643 48.938 142.643C47.7599 142.643 46.7349 142.306 45.8628 141.633C45.006 140.944 44.4093 140.065 44.0728 138.994C43.7362 137.923 43.5679 136.408 43.5679 134.45V125.063C43.5679 124.069 43.4608 123.381 43.2466 122.998C43.0324 122.616 42.7111 122.325 42.2827 122.126C41.8696 121.912 41.1123 121.812 40.0107 121.828V120.979H47.3774V135.046C47.3774 137.005 47.714 138.29 48.3872 138.902C49.0757 139.514 49.9019 139.82 50.8657 139.82C51.5236 139.82 52.2656 139.613 53.0918 139.2C53.9333 138.787 54.9277 137.999 56.0752 136.836V124.926C56.0752 123.732 55.8534 122.929 55.4097 122.516C54.9813 122.088 54.0786 121.858 52.7017 121.828V120.979H59.8618ZM73.1494 122.631V136.446C73.1494 138.405 73.3636 139.644 73.792 140.164C74.3581 140.837 75.1154 141.174 76.064 141.174H77.9688V142H65.4155V141.174H66.3564C66.9684 141.174 67.5269 141.021 68.0317 140.715C68.5366 140.409 68.8809 139.996 69.0645 139.476C69.2633 138.955 69.3628 137.946 69.3628 136.446V122.631H65.2778V120.979H69.3628V119.602C69.3628 117.506 69.6994 115.731 70.3726 114.277C71.0457 112.824 72.0708 111.653 73.4478 110.766C74.84 109.863 76.4006 109.412 78.1294 109.412C79.7358 109.412 81.2122 109.932 82.5586 110.973C83.446 111.661 83.8896 112.434 83.8896 113.291C83.8896 113.75 83.6908 114.186 83.293 114.599C82.8952 114.996 82.4668 115.195 82.0078 115.195C81.6559 115.195 81.2811 115.073 80.8833 114.828C80.5008 114.568 80.0265 114.025 79.4604 113.199C78.8944 112.357 78.3742 111.791 77.8999 111.5C77.4256 111.21 76.8978 111.064 76.3164 111.064C75.6126 111.064 75.016 111.256 74.5264 111.638C74.0368 112.005 73.6849 112.587 73.4707 113.382C73.2565 114.163 73.1494 116.19 73.1494 119.464V120.979H78.5654V122.631H73.1494ZM90.8662 120.359C94.0485 120.359 96.6035 121.568 98.5312 123.985C100.168 126.05 100.987 128.422 100.987 131.099C100.987 132.981 100.535 134.886 99.6328 136.813C98.7301 138.741 97.4832 140.195 95.8921 141.174C94.3162 142.153 92.5568 142.643 90.6138 142.643C87.4468 142.643 84.93 141.38 83.0635 138.856C81.4876 136.729 80.6997 134.343 80.6997 131.696C80.6997 129.768 81.174 127.856 82.1226 125.958C83.0864 124.046 84.3486 122.639 85.9092 121.736C87.4697 120.818 89.1221 120.359 90.8662 120.359ZM90.1548 121.851C89.3439 121.851 88.5254 122.095 87.6992 122.585C86.8883 123.059 86.2305 123.901 85.7256 125.109C85.2207 126.318 84.9683 127.871 84.9683 129.768C84.9683 132.828 85.5726 135.467 86.7812 137.686C88.0052 139.904 89.6117 141.013 91.6006 141.013C93.0846 141.013 94.3086 140.401 95.2725 139.177C96.2363 137.953 96.7183 135.85 96.7183 132.866C96.7183 129.133 95.915 126.196 94.3086 124.054C93.2223 122.585 91.8377 121.851 90.1548 121.851ZM122.513 120.979V133.715C122.513 136.148 122.567 137.64 122.674 138.19C122.796 138.726 122.98 139.101 123.225 139.315C123.485 139.529 123.783 139.636 124.12 139.636C124.594 139.636 125.129 139.506 125.726 139.246L126.047 140.049L119.759 142.643H118.727V138.19C116.921 140.149 115.544 141.38 114.596 141.885C113.647 142.39 112.645 142.643 111.589 142.643C110.411 142.643 109.386 142.306 108.514 141.633C107.657 140.944 107.061 140.065 106.724 138.994C106.388 137.923 106.219 136.408 106.219 134.45V125.063C106.219 124.069 106.112 123.381 105.898 122.998C105.684 122.616 105.362 122.325 104.934 122.126C104.521 121.912 103.764 121.812 102.662 121.828V120.979H110.029V135.046C110.029 137.005 110.365 138.29 111.039 138.902C111.727 139.514 112.553 139.82 113.517 139.82C114.175 139.82 114.917 139.613 115.743 139.2C116.585 138.787 117.579 137.999 118.727 136.836V124.926C118.727 123.732 118.505 122.929 118.061 122.516C117.633 122.088 116.73 121.858 115.353 121.828V120.979H122.513ZM133.735 120.359V125.086C135.495 121.935 137.3 120.359 139.151 120.359C139.993 120.359 140.689 120.619 141.24 121.139C141.791 121.644 142.066 122.233 142.066 122.906C142.066 123.503 141.867 124.008 141.469 124.421C141.071 124.834 140.597 125.041 140.046 125.041C139.511 125.041 138.907 124.78 138.233 124.26C137.576 123.725 137.086 123.457 136.765 123.457C136.489 123.457 136.191 123.61 135.87 123.916C135.181 124.543 134.47 125.576 133.735 127.014V137.089C133.735 138.252 133.881 139.131 134.171 139.728C134.37 140.141 134.722 140.485 135.227 140.761C135.732 141.036 136.459 141.174 137.407 141.174V142H126.644V141.174C127.715 141.174 128.511 141.006 129.031 140.669C129.413 140.424 129.681 140.034 129.834 139.499C129.91 139.238 129.949 138.496 129.949 137.272V129.125C129.949 126.678 129.895 125.224 129.788 124.765C129.696 124.291 129.513 123.947 129.237 123.732C128.977 123.518 128.648 123.411 128.25 123.411C127.776 123.411 127.241 123.526 126.644 123.755L126.415 122.929L132.771 120.359H133.735ZM154.321 142V141.151H155.491C156.807 141.151 157.74 140.73 158.291 139.889C158.628 139.384 158.796 138.252 158.796 136.492V116.389C158.796 114.446 158.582 113.229 158.153 112.74C157.557 112.067 156.669 111.73 155.491 111.73H154.321V110.881H166.989C171.64 110.881 175.174 111.409 177.591 112.464C180.024 113.52 181.975 115.279 183.443 117.743C184.927 120.206 185.669 123.052 185.669 126.28C185.669 130.61 184.354 134.228 181.722 137.135C178.769 140.378 174.271 142 168.228 142H154.321ZM163.202 139.751C165.145 140.179 166.775 140.394 168.09 140.394C171.64 140.394 174.585 139.147 176.926 136.653C179.267 134.159 180.437 130.778 180.437 126.509C180.437 122.21 179.267 118.821 176.926 116.343C174.585 113.864 171.579 112.625 167.907 112.625C166.53 112.625 164.962 112.847 163.202 113.291V139.751ZM207.379 120.979V133.715C207.379 136.148 207.433 137.64 207.54 138.19C207.662 138.726 207.846 139.101 208.091 139.315C208.351 139.529 208.649 139.636 208.986 139.636C209.46 139.636 209.996 139.506 210.592 139.246L210.914 140.049L204.625 142.643H203.593V138.19C201.787 140.149 200.41 141.38 199.462 141.885C198.513 142.39 197.511 142.643 196.456 142.643C195.278 142.643 194.252 142.306 193.38 141.633C192.524 140.944 191.927 140.065 191.59 138.994C191.254 137.923 191.085 136.408 191.085 134.45V125.063C191.085 124.069 190.978 123.381 190.764 122.998C190.55 122.616 190.229 122.325 189.8 122.126C189.387 121.912 188.63 121.812 187.528 121.828V120.979H194.895V135.046C194.895 137.005 195.232 138.29 195.905 138.902C196.593 139.514 197.419 139.82 198.383 139.82C199.041 139.82 199.783 139.613 200.609 139.2C201.451 138.787 202.445 137.999 203.593 136.836V124.926C203.593 123.732 203.371 122.929 202.927 122.516C202.499 122.088 201.596 121.858 200.219 121.828V120.979H207.379ZM210.937 123.067L217.408 120.451H218.28V125.362C219.367 123.511 220.453 122.218 221.539 121.483C222.641 120.734 223.796 120.359 225.004 120.359C227.116 120.359 228.875 121.185 230.283 122.837C232.012 124.857 232.876 127.488 232.876 130.732C232.876 134.358 231.836 137.357 229.755 139.728C228.041 141.671 225.884 142.643 223.283 142.643C222.151 142.643 221.172 142.482 220.346 142.161C219.734 141.931 219.045 141.472 218.28 140.784V147.187C218.28 148.625 218.364 149.535 218.533 149.917C218.716 150.315 219.022 150.629 219.451 150.858C219.894 151.088 220.69 151.203 221.837 151.203V152.052H210.822V151.203H211.396C212.237 151.218 212.956 151.057 213.553 150.721C213.843 150.552 214.065 150.277 214.218 149.895C214.387 149.527 214.471 148.579 214.471 147.049V127.175C214.471 125.813 214.41 124.949 214.287 124.582C214.165 124.214 213.966 123.939 213.69 123.755C213.43 123.572 213.071 123.48 212.612 123.48C212.245 123.48 211.778 123.587 211.212 123.801L210.937 123.067ZM218.28 126.716V134.564C218.28 136.263 218.349 137.38 218.487 137.915C218.701 138.802 219.221 139.583 220.047 140.256C220.889 140.929 221.944 141.266 223.214 141.266C224.744 141.266 225.984 140.669 226.932 139.476C228.171 137.915 228.791 135.72 228.791 132.889C228.791 129.676 228.087 127.205 226.68 125.477C225.701 124.283 224.538 123.687 223.191 123.687C222.457 123.687 221.73 123.87 221.011 124.237C220.46 124.513 219.55 125.339 218.28 126.716ZM239.485 128.896C239.47 132.017 240.227 134.465 241.757 136.24C243.287 138.014 245.085 138.902 247.15 138.902C248.527 138.902 249.721 138.527 250.73 137.777C251.756 137.012 252.612 135.712 253.301 133.876L254.012 134.335C253.691 136.431 252.758 138.343 251.212 140.072C249.667 141.786 247.732 142.643 245.406 142.643C242.882 142.643 240.717 141.663 238.912 139.705C237.122 137.731 236.227 135.085 236.227 131.765C236.227 128.169 237.145 125.369 238.98 123.365C240.832 121.346 243.15 120.336 245.934 120.336C248.29 120.336 250.226 121.116 251.74 122.677C253.255 124.222 254.012 126.295 254.012 128.896H239.485ZM239.485 127.565H249.216C249.139 126.219 248.979 125.27 248.734 124.719C248.351 123.862 247.778 123.189 247.013 122.7C246.263 122.21 245.475 121.965 244.649 121.965C243.379 121.965 242.239 122.463 241.229 123.457C240.235 124.436 239.654 125.806 239.485 127.565ZM250.432 110.101L243.662 118.018H242.882L245.292 110.101H250.432ZM262.985 120.359V125.086C264.745 121.935 266.55 120.359 268.401 120.359C269.243 120.359 269.939 120.619 270.49 121.139C271.041 121.644 271.316 122.233 271.316 122.906C271.316 123.503 271.117 124.008 270.719 124.421C270.321 124.834 269.847 125.041 269.296 125.041C268.761 125.041 268.157 124.78 267.483 124.26C266.826 123.725 266.336 123.457 266.015 123.457C265.739 123.457 265.441 123.61 265.12 123.916C264.431 124.543 263.72 125.576 262.985 127.014V137.089C262.985 138.252 263.131 139.131 263.421 139.728C263.62 140.141 263.972 140.485 264.477 140.761C264.982 141.036 265.709 141.174 266.657 141.174V142H255.894V141.174C256.965 141.174 257.761 141.006 258.281 140.669C258.663 140.424 258.931 140.034 259.084 139.499C259.16 139.238 259.199 138.496 259.199 137.272V129.125C259.199 126.678 259.145 125.224 259.038 124.765C258.946 124.291 258.763 123.947 258.487 123.732C258.227 123.518 257.898 123.411 257.5 123.411C257.026 123.411 256.491 123.526 255.894 123.755L255.665 122.929L262.021 120.359H262.985ZM276.021 128.896C276.005 132.017 276.763 134.465 278.292 136.24C279.822 138.014 281.62 138.902 283.686 138.902C285.062 138.902 286.256 138.527 287.266 137.777C288.291 137.012 289.147 135.712 289.836 133.876L290.547 134.335C290.226 136.431 289.293 138.343 287.748 140.072C286.202 141.786 284.267 142.643 281.941 142.643C279.417 142.643 277.252 141.663 275.447 139.705C273.657 137.731 272.762 135.085 272.762 131.765C272.762 128.169 273.68 125.369 275.516 123.365C277.367 121.346 279.685 120.336 282.469 120.336C284.825 120.336 286.761 121.116 288.275 122.677C289.79 124.222 290.547 126.295 290.547 128.896H276.021ZM276.021 127.565H285.751C285.674 126.219 285.514 125.27 285.269 124.719C284.887 123.862 284.313 123.189 283.548 122.7C282.798 122.21 282.01 121.965 281.184 121.965C279.914 121.965 278.774 122.463 277.765 123.457C276.77 124.436 276.189 125.806 276.021 127.565ZM286.967 110.101L280.197 118.018H279.417L281.827 110.101H286.967Z" fill="#313131"/>
</svg>
