<svg width="19" height="25" viewBox="0 0 19 25" fill="none" xmlns="http://www.w3.org/2000/svg">
<path d="M2.375 25C1.72187 25 1.16296 24.7671 0.69825 24.3012C0.233541 23.8353 0.000791667 23.2746 0 22.619V10.7143C0 10.0595 0.23275 9.49921 0.69825 9.03333C1.16375 8.56746 1.72267 8.33413 2.375 8.33333H3.5625V5.95238C3.5625 4.30556 4.1416 2.90198 5.29981 1.74167C6.45802 0.58135 7.85808 0.000794463 9.5 8.12612e-07C11.1419 -0.000792838 12.5424 0.579763 13.7014 1.74167C14.8604 2.90357 15.4391 4.30714 15.4375 5.95238V8.33333H16.625C17.2781 8.33333 17.8374 8.56667 18.3029 9.03333C18.7684 9.5 19.0008 10.0603 19 10.7143V22.619C19 23.2738 18.7676 23.8345 18.3029 24.3012C17.8382 24.7679 17.2789 25.0008 16.625 25H2.375ZM9.5 19.0476C10.1531 19.0476 10.7124 18.8147 11.1779 18.3488C11.6434 17.8829 11.8758 17.3222 11.875 16.6667C11.8742 16.0111 11.6419 15.4508 11.1779 14.9857C10.714 14.5206 10.1547 14.2873 9.5 14.2857C8.84529 14.2841 8.28637 14.5175 7.82325 14.9857C7.36012 15.454 7.12737 16.0143 7.125 16.6667C7.12262 17.319 7.35537 17.8798 7.82325 18.3488C8.29112 18.8179 8.85004 19.0508 9.5 19.0476ZM5.9375 8.33333H13.0625V5.95238C13.0625 4.96032 12.7161 4.11706 12.0234 3.42262C11.3307 2.72818 10.4896 2.38095 9.5 2.38095C8.51042 2.38095 7.66927 2.72818 6.97656 3.42262C6.28385 4.11706 5.9375 4.96032 5.9375 5.95238V8.33333Z" fill="#595656"/>
</svg>
