<svg width="46" height="46" viewBox="0 0 46 46" fill="none" xmlns="http://www.w3.org/2000/svg">
<path d="M45.2383 6.44656L39.4665 0.729856C38.9704 0.261358 38.3113 0 37.6258 0C36.9404 0 36.2812 0.261358 35.7851 0.729856L30.6529 5.82854H3.11989C2.29244 5.82854 1.49889 6.15411 0.913793 6.73361C0.328701 7.31312 0 8.0991 0 8.91865V42.9099C0 43.7294 0.328701 44.5154 0.913793 45.0949C1.49889 45.6744 2.29244 46 3.11989 46H37.4386C38.2661 46 39.0596 45.6744 39.6447 45.0949C40.2298 44.5154 40.5585 43.7294 40.5585 42.9099V14.7281L45.2383 10.0929C45.7261 9.60912 46 8.95339 46 8.26973C46 7.58606 45.7261 6.93034 45.2383 6.44656ZM23.134 27.6602L16.5978 29.0971L18.1577 22.6851L33.0552 7.89892L38.0938 12.8894L23.134 27.6602ZM39.7785 11.1281L34.7399 6.13755L37.6258 3.2792L42.6644 8.26973L39.7785 11.1281Z" fill="#E9E9E9"/>
</svg>
