<svg width="29" height="26" viewBox="0 0 29 26" fill="none" xmlns="http://www.w3.org/2000/svg">
<path d="M13.5667 12.9928C13.5667 11.9622 13.2021 11.0823 12.4729 10.3532C11.7438 9.62401 10.8639 9.25942 9.83333 9.25942C8.80278 9.25942 7.92292 9.62401 7.19375 10.3532C6.46458 11.0823 6.1 11.9622 6.1 12.9928C6.1 14.0233 6.46458 14.9032 7.19375 15.6323C7.92292 16.3615 8.80278 16.7261 9.83333 16.7261C10.8639 16.7261 11.7438 16.3615 12.4729 15.6323C13.2021 14.9032 13.5667 14.0233 13.5667 12.9928ZM24.7667 20.4594C24.7667 19.9539 24.5819 19.5164 24.2125 19.1469C23.8431 18.7775 23.4056 18.5928 22.9 18.5928C22.3944 18.5928 21.9569 18.7775 21.5875 19.1469C21.2181 19.5164 21.0333 19.9539 21.0333 20.4594C21.0333 20.9747 21.2156 21.4146 21.5802 21.7792C21.9448 22.1438 22.3847 22.3261 22.9 22.3261C23.4153 22.3261 23.8552 22.1438 24.2198 21.7792C24.5844 21.4146 24.7667 20.9747 24.7667 20.4594ZM24.7667 5.52609C24.7667 5.02053 24.5819 4.58303 24.2125 4.21359C23.8431 3.84415 23.4056 3.65942 22.9 3.65942C22.3944 3.65942 21.9569 3.84415 21.5875 4.21359C21.2181 4.58303 21.0333 5.02053 21.0333 5.52609C21.0333 6.04137 21.2156 6.4813 21.5802 6.84588C21.9448 7.21047 22.3847 7.39276 22.9 7.39276C23.4153 7.39276 23.8552 7.21047 24.2198 6.84588C24.5844 6.4813 24.7667 6.04137 24.7667 5.52609ZM19.1667 11.6657V14.3636C19.1667 14.4608 19.1326 14.5556 19.0646 14.648C18.9965 14.7403 18.9188 14.7914 18.8313 14.8011L16.5708 15.1511C16.4639 15.4914 16.3083 15.8608 16.1042 16.2594C16.4347 16.7261 16.8722 17.2851 17.4167 17.9365C17.4847 18.0435 17.5188 18.1407 17.5188 18.2282C17.5188 18.3448 17.4847 18.4372 17.4167 18.5053C17.1931 18.7969 16.792 19.232 16.2135 19.8105C15.6351 20.3889 15.2535 20.6782 15.0688 20.6782C14.9618 20.6782 14.8597 20.6441 14.7625 20.5761L13.0854 19.2636C12.7257 19.4483 12.3514 19.599 11.9625 19.7157C11.8556 20.7657 11.7438 21.5191 11.6271 21.9761C11.559 22.2094 11.4132 22.3261 11.1896 22.3261H8.47708C8.37014 22.3261 8.27292 22.2896 8.18542 22.2167C8.09792 22.1438 8.04931 22.0587 8.03958 21.9615L7.70417 19.7303C7.37361 19.633 7.00903 19.4823 6.61042 19.2782L4.88958 20.5761C4.82153 20.6441 4.72431 20.6782 4.59792 20.6782C4.49097 20.6782 4.38889 20.6393 4.29167 20.5615C2.89167 19.2685 2.19167 18.4907 2.19167 18.2282C2.19167 18.1407 2.22569 18.0483 2.29375 17.9511C2.39097 17.815 2.59028 17.5573 2.89167 17.1782C3.19306 16.799 3.42153 16.5025 3.57708 16.2886C3.35347 15.8608 3.18333 15.4622 3.06667 15.0928L0.85 14.7428C0.752778 14.733 0.670139 14.6869 0.602083 14.6042C0.534028 14.5216 0.5 14.4268 0.5 14.3198V11.6219C0.5 11.5247 0.534028 11.4299 0.602083 11.3375C0.670139 11.2452 0.747917 11.1941 0.835417 11.1844L3.09583 10.8344C3.20278 10.4941 3.35833 10.1247 3.5625 9.72609C3.23194 9.25942 2.79444 8.7004 2.25 8.04901C2.18194 7.94206 2.14792 7.84484 2.14792 7.75734C2.14792 7.64067 2.18194 7.54345 2.25 7.46567C2.46389 7.17401 2.8625 6.74137 3.44583 6.16776C4.02917 5.59415 4.41319 5.30734 4.59792 5.30734C4.70486 5.30734 4.80694 5.34137 4.90417 5.40942L6.58125 6.72192C6.91181 6.54692 7.28611 6.39137 7.70417 6.25526C7.81111 5.20526 7.92292 4.45665 8.03958 4.00942C8.10764 3.77609 8.25347 3.65942 8.47708 3.65942H11.1896C11.2965 3.65942 11.3938 3.69588 11.4813 3.7688C11.5688 3.84172 11.6174 3.92678 11.6271 4.02401L11.9625 6.25526C12.2931 6.35248 12.6576 6.50317 13.0563 6.70734L14.7771 5.40942C14.8549 5.34137 14.9521 5.30734 15.0688 5.30734C15.1757 5.30734 15.2778 5.34623 15.375 5.42401C16.775 6.71706 17.475 7.49484 17.475 7.75734C17.475 7.83512 17.441 7.92748 17.3729 8.03442C17.2563 8.18998 17.0521 8.45248 16.7604 8.82192C16.4688 9.19137 16.25 9.48303 16.1042 9.69692C16.3278 10.1636 16.4931 10.5622 16.6 10.8928L18.8167 11.2282C18.9139 11.2476 18.9965 11.2987 19.0646 11.3813C19.1326 11.4639 19.1667 11.5587 19.1667 11.6657ZM28.5 19.4386V21.4803C28.5 21.6358 27.7757 21.7865 26.3271 21.9323C26.2104 22.1948 26.0646 22.4476 25.8896 22.6907C26.3854 23.7893 26.6333 24.4601 26.6333 24.7032C26.6333 24.7421 26.6139 24.7761 26.575 24.8053C25.3889 25.4955 24.7861 25.8407 24.7667 25.8407C24.6889 25.8407 24.4653 25.6122 24.0958 25.1553C23.7264 24.6983 23.4736 24.3678 23.3375 24.1636C23.1431 24.183 22.9972 24.1928 22.9 24.1928C22.8028 24.1928 22.6569 24.183 22.4625 24.1636C22.3264 24.3678 22.0736 24.6983 21.7042 25.1553C21.3347 25.6122 21.1111 25.8407 21.0333 25.8407C21.0139 25.8407 20.4111 25.4955 19.225 24.8053C19.1861 24.7761 19.1667 24.7421 19.1667 24.7032C19.1667 24.4601 19.4146 23.7893 19.9104 22.6907C19.7354 22.4476 19.5896 22.1948 19.4729 21.9323C18.0243 21.7865 17.3 21.6358 17.3 21.4803V19.4386C17.3 19.283 18.0243 19.1323 19.4729 18.9865C19.5993 18.7046 19.7451 18.4518 19.9104 18.2282C19.4146 17.1296 19.1667 16.4587 19.1667 16.2157C19.1667 16.1768 19.1861 16.1428 19.225 16.1136C19.2639 16.0941 19.434 15.9969 19.7354 15.8219C20.0368 15.6469 20.3236 15.4816 20.5958 15.3261C20.8681 15.1705 21.0139 15.0928 21.0333 15.0928C21.1111 15.0928 21.3347 15.3188 21.7042 15.7709C22.0736 16.223 22.3264 16.5511 22.4625 16.7553C22.6569 16.7358 22.8028 16.7261 22.9 16.7261C22.9972 16.7261 23.1431 16.7358 23.3375 16.7553C23.8333 16.065 24.2806 15.5205 24.6792 15.1219L24.7667 15.0928C24.8056 15.0928 25.4083 15.433 26.575 16.1136C26.6139 16.1428 26.6333 16.1768 26.6333 16.2157C26.6333 16.4587 26.3854 17.1296 25.8896 18.2282C26.0549 18.4518 26.2007 18.7046 26.3271 18.9865C27.7757 19.1323 28.5 19.283 28.5 19.4386ZM28.5 4.50526V6.54692C28.5 6.70248 27.7757 6.85317 26.3271 6.99901C26.2104 7.26151 26.0646 7.51428 25.8896 7.75734C26.3854 8.85595 26.6333 9.52678 26.6333 9.76984C26.6333 9.80873 26.6139 9.84276 26.575 9.87192C25.3889 10.5622 24.7861 10.9073 24.7667 10.9073C24.6889 10.9073 24.4653 10.6789 24.0958 10.2219C23.7264 9.76498 23.4736 9.43442 23.3375 9.23026C23.1431 9.2497 22.9972 9.25942 22.9 9.25942C22.8028 9.25942 22.6569 9.2497 22.4625 9.23026C22.3264 9.43442 22.0736 9.76498 21.7042 10.2219C21.3347 10.6789 21.1111 10.9073 21.0333 10.9073C21.0139 10.9073 20.4111 10.5622 19.225 9.87192C19.1861 9.84276 19.1667 9.80873 19.1667 9.76984C19.1667 9.52678 19.4146 8.85595 19.9104 7.75734C19.7354 7.51428 19.5896 7.26151 19.4729 6.99901C18.0243 6.85317 17.3 6.70248 17.3 6.54692V4.50526C17.3 4.3497 18.0243 4.19901 19.4729 4.05317C19.5993 3.77123 19.7451 3.51845 19.9104 3.29484C19.4146 2.19623 19.1667 1.5254 19.1667 1.28234C19.1667 1.24345 19.1861 1.20942 19.225 1.18026C19.2639 1.16081 19.434 1.06359 19.7354 0.88859C20.0368 0.71359 20.3236 0.548313 20.5958 0.392757C20.8681 0.237202 21.0139 0.159424 21.0333 0.159424C21.1111 0.159424 21.3347 0.385465 21.7042 0.837549C22.0736 1.28963 22.3264 1.61776 22.4625 1.82192C22.6569 1.80248 22.8028 1.79276 22.9 1.79276C22.9972 1.79276 23.1431 1.80248 23.3375 1.82192C23.8333 1.13165 24.2806 0.587202 24.6792 0.18859L24.7667 0.159424C24.8056 0.159424 25.4083 0.499702 26.575 1.18026C26.6139 1.20942 26.6333 1.24345 26.6333 1.28234C26.6333 1.5254 26.3854 2.19623 25.8896 3.29484C26.0549 3.51845 26.2007 3.77123 26.3271 4.05317C27.7757 4.19901 28.5 4.3497 28.5 4.50526Z" fill="#D9D9D9"/>
</svg>
