<svg width="25" height="25" viewBox="0 0 25 25" fill="none" xmlns="http://www.w3.org/2000/svg">
<path d="M24.1161 8.56373C25.6114 7.06844 24.9295 5.32193 24.1161 4.47261L20.5272 0.883902C19.0198 -0.611391 17.2852 0.0704626 16.4358 0.883902L14.4021 2.92946H11.3037C9.03074 2.92946 7.71481 4.1257 7.04488 5.50137L1.73332 10.8127V15.5976L0.883949 16.435C-0.611423 17.9422 0.0704663 19.6768 0.883949 20.5261L4.47284 24.1148C5.11884 24.7608 5.8127 25 6.47066 25C7.32003 25 8.09762 24.5813 8.56418 24.1148L11.7942 20.873H16.0889C18.1226 20.873 19.1514 19.605 19.5223 18.3609C20.8741 18.002 21.6158 16.9733 21.9149 15.9684C23.7691 15.4899 24.463 13.7315 24.463 12.4993V8.91064H23.7572L24.1161 8.56373ZM22.0704 12.4993C22.0704 13.0377 21.8431 13.6956 20.8741 13.6956H19.6778V14.8918C19.6778 15.4301 19.4505 16.088 18.4815 16.088H17.2852V17.2843C17.2852 17.8226 17.0579 18.4805 16.0889 18.4805H10.8132L6.88936 22.4042C6.51851 22.7511 6.30318 22.5477 6.17158 22.4161L2.59465 18.8514C2.24773 18.4805 2.4511 18.2652 2.58269 18.1336L4.12592 16.5785V11.7936L6.51851 9.40109V11.3031C6.51851 12.7506 7.47555 14.8918 10.1074 14.8918C12.7393 14.8918 13.6963 12.7506 13.6963 11.3031H22.0704V12.4993ZM22.4173 6.86508L20.3836 8.91064H11.3037V11.3031C11.3037 11.8414 11.0764 12.4993 10.1074 12.4993C9.1384 12.4993 8.91111 11.8414 8.91111 11.3031V7.7144C8.91111 7.16414 9.11448 5.32193 11.3037 5.32193H15.3831L18.1106 2.59452C18.4815 2.24761 18.6968 2.45097 18.8284 2.58256L22.4053 6.14734C22.7523 6.51817 22.5489 6.73349 22.4173 6.86508Z" fill="#595656"/>
</svg>
