<svg width="25" height="25" viewBox="0 0 25 25" fill="none" xmlns="http://www.w3.org/2000/svg">
<path d="M19.998 23.3335H1.6665V5.00195H12.682L14.3485 3.33545H1.6665C1.22451 3.33545 0.800634 3.51103 0.488105 3.82356C0.175577 4.13609 0 4.55997 0 5.00195V23.3335C0 23.7755 0.175577 24.1994 0.488105 24.5119C0.800634 24.8244 1.22451 25 1.6665 25H19.998C20.4399 25 20.8638 24.8244 21.1763 24.5119C21.4889 24.1994 21.6644 23.7755 21.6644 23.3335V10.8347L19.998 12.5012V23.3335Z" fill="#595656"/>
<path d="M24.6058 3.20229L21.7977 0.394227C21.6731 0.269264 21.5251 0.170118 21.3621 0.10247C21.1991 0.0348216 21.0243 0 20.8478 0C20.6713 0 20.4966 0.0348216 20.3336 0.10247C20.1706 0.170118 20.0225 0.269264 19.8979 0.394227L8.4741 11.8848L7.54919 15.8927C7.50979 16.087 7.51393 16.2876 7.56132 16.4801C7.60871 16.6726 7.69817 16.8522 7.82327 17.0059C7.94836 17.1597 8.10598 17.2839 8.28479 17.3694C8.4636 17.455 8.65916 17.4999 8.85739 17.5009C8.95985 17.5121 9.06323 17.5121 9.16569 17.5009L13.2069 16.6093L24.6058 5.1021C24.7307 4.97748 24.8299 4.82943 24.8975 4.66643C24.9652 4.50342 25 4.32868 25 4.15219C25 3.97571 24.9652 3.80096 24.8975 3.63796C24.8299 3.47496 24.7307 3.32691 24.6058 3.20229ZM12.3404 15.0678L9.29068 15.7427L9.99894 12.718L18.5981 4.06054L20.9478 6.41031L12.3404 15.0678ZM21.8894 5.46873L19.5396 3.11896L20.8312 1.80242L23.1976 4.16886L21.8894 5.46873Z" fill="#595656"/>
</svg>
