<svg width="20" height="25" viewBox="0 0 20 25" fill="none" xmlns="http://www.w3.org/2000/svg">
<path d="M13.9487 0V2.29167H16.1482L14.2456 4.22344C13.4863 3.32321 12.544 2.60062 11.4836 2.10532C10.4232 1.61003 9.26974 1.35378 8.10256 1.35417C3.63487 1.35417 0 5.04583 0 9.58333C0 13.7323 3.03897 17.1729 6.97436 17.7323V19.6875H4.41026V21.9792H6.97436V25H9.23077V21.9792H11.7949V19.6875H9.23077V17.7323C13.1662 17.1729 16.2051 13.7323 16.2051 9.58333C16.2057 8.41701 15.9609 7.26402 15.4872 6.20156L17.7436 3.9099V6.14583H20V0H13.9487ZM8.10256 15.5208C6.9463 15.5208 5.81601 15.1726 4.85462 14.5202C3.89322 13.8678 3.1439 12.9405 2.70142 11.8555C2.25894 10.7706 2.14317 9.57675 2.36874 8.42498C2.59432 7.27322 3.15111 6.21526 3.96871 5.38489C4.78631 4.55451 5.82799 3.98902 6.96204 3.75992C8.09608 3.53082 9.27155 3.6484 10.3398 4.0978C11.408 4.54719 12.3211 5.30822 12.9635 6.28464C13.6058 7.26105 13.9487 8.40901 13.9487 9.58333C13.947 11.1575 13.3305 12.6667 12.2345 13.7798C11.1385 14.8929 9.65252 15.519 8.10256 15.5208Z" fill="#5B891F"/>
</svg>
