<svg width="46" height="46" viewBox="0 0 46 46" fill="none" xmlns="http://www.w3.org/2000/svg">
<path fill-rule="evenodd" clip-rule="evenodd" d="M16.4286 0C14.9036 0 13.441 0.605802 12.3627 1.68414C11.2844 2.76247 10.6786 4.22501 10.6786 5.75V9.85714H6.57143C4.82858 9.85714 3.15711 10.5495 1.92473 11.7819C0.692345 13.0143 0 14.6857 0 16.4286V39.4286C0 41.1714 0.692345 42.8429 1.92473 44.0753C3.15711 45.3077 4.82858 46 6.57143 46H39.4286C41.1714 46 42.8429 45.3077 44.0753 44.0753C45.3077 42.8429 46 41.1714 46 39.4286V16.4286C46 14.6857 45.3077 13.0143 44.0753 11.7819C42.8429 10.5495 41.1714 9.85714 39.4286 9.85714H35.3214V5.75C35.3214 4.22501 34.7156 2.76247 33.6373 1.68414C32.559 0.605802 31.0964 0 29.5714 0H16.4286ZM30.3929 9.85714V5.75C30.3929 5.53214 30.3063 5.32321 30.1523 5.16916C29.9982 5.01512 29.7893 4.92857 29.5714 4.92857H16.4286C16.2107 4.92857 16.0018 5.01512 15.8477 5.16916C15.6937 5.32321 15.6071 5.53214 15.6071 5.75V9.85714H30.3929ZM6.57143 14.7857H39.4286C39.8643 14.7857 40.2822 14.9588 40.5902 15.2669C40.8983 15.575 41.0714 15.9929 41.0714 16.4286V19.7143H4.92857V16.4286C4.92857 15.9929 5.10166 15.575 5.40975 15.2669C5.71785 14.9588 6.13572 14.7857 6.57143 14.7857ZM4.92857 24.6429V39.4286C4.92857 39.8643 5.10166 40.2822 5.40975 40.5902C5.71785 40.8983 6.13572 41.0714 6.57143 41.0714H39.4286C39.8643 41.0714 40.2822 40.8983 40.5902 40.5902C40.8983 40.2822 41.0714 39.8643 41.0714 39.4286V24.6429H26.2857V29.5714H19.7143V24.6429H4.92857Z" fill="#E9E9E9"/>
<path fill-rule="evenodd" clip-rule="evenodd" d="M11.6786 10.8571H6.57143C5.09379 10.8571 3.67668 11.4441 2.63183 12.489C1.58699 13.5338 1 14.9509 1 16.4286V39.4286C1 40.9062 1.58699 42.3233 2.63183 43.3682C3.67668 44.413 5.09379 45 6.57143 45H39.4286C40.9062 45 42.3233 44.413 43.3682 43.3682C44.413 42.3233 45 40.9062 45 39.4286V16.4286C45 14.9509 44.413 13.5338 43.3682 12.489C42.3233 11.4441 40.9062 10.8571 39.4286 10.8571H34.3214V5.75C34.3214 4.49022 33.821 3.28204 32.9302 2.39124C32.0394 1.50045 30.8312 1 29.5714 1H16.4286C15.1688 1 13.9606 1.50044 13.0698 2.39124C12.179 3.28204 11.6786 4.49022 11.6786 5.75V10.8571ZM31.3929 10.8571H14.6071V5.75C14.6071 5.26693 14.799 4.80364 15.1406 4.46206C15.4822 4.12047 15.9455 3.92857 16.4286 3.92857H29.5714C30.0545 3.92857 30.5178 4.12047 30.8594 4.46206C31.201 4.80364 31.3929 5.26693 31.3929 5.75V10.8571ZM42.0714 20.7143H3.92857V16.4286C3.92857 15.7276 4.20702 15.0554 4.70265 14.5598C5.19828 14.0642 5.8705 13.7857 6.57143 13.7857H39.4286C40.1295 13.7857 40.8017 14.0642 41.2974 14.5598C41.793 15.0554 42.0714 15.7276 42.0714 16.4286V20.7143ZM3.92857 23.6429H20.7143V28.5714H25.2857V23.6429H42.0714V39.4286C42.0714 40.1295 41.793 40.8017 41.2974 41.2974C40.8017 41.793 40.1295 42.0714 39.4286 42.0714H6.57143C5.8705 42.0714 5.19828 41.793 4.70265 41.2974C4.20702 40.8017 3.92857 40.1295 3.92857 39.4286V23.6429ZM26.2857 24.6429H41.0714V39.4286C41.0714 39.8643 40.8983 40.2822 40.5902 40.5902C40.2822 40.8983 39.8643 41.0714 39.4286 41.0714H6.57143C6.13572 41.0714 5.71785 40.8983 5.40975 40.5902C5.10166 40.2822 4.92857 39.8643 4.92857 39.4286V24.6429H19.7143V29.5714H26.2857V24.6429ZM30.3929 5.75C30.3929 5.53214 30.3063 5.32321 30.1523 5.16916C29.9982 5.01511 29.7893 4.92857 29.5714 4.92857H16.4286C16.2107 4.92857 16.0018 5.01511 15.8477 5.16916C15.6937 5.32321 15.6071 5.53214 15.6071 5.75V9.85714H30.3929V5.75ZM12.3627 1.68414C13.441 0.605802 14.9036 0 16.4286 0H29.5714C31.0964 0 32.559 0.605802 33.6373 1.68414C34.7156 2.76247 35.3214 4.22501 35.3214 5.75V9.85714H39.4286C41.1714 9.85714 42.8429 10.5495 44.0753 11.7819C45.3077 13.0143 46 14.6857 46 16.4286V39.4286C46 41.1714 45.3077 42.8429 44.0753 44.0753C42.8429 45.3077 41.1714 46 39.4286 46H6.57143C4.82858 46 3.15711 45.3077 1.92473 44.0753C0.692345 42.8429 0 41.1714 0 39.4286V16.4286C0 14.6857 0.692345 13.0143 1.92473 11.7819C3.15711 10.5495 4.82858 9.85714 6.57143 9.85714H10.6786V5.75C10.6786 4.22501 11.2844 2.76247 12.3627 1.68414ZM39.4286 14.7857H6.57143C6.13572 14.7857 5.71785 14.9588 5.40975 15.2669C5.10166 15.575 4.92857 15.9929 4.92857 16.4286V19.7143H41.0714V16.4286C41.0714 15.9929 40.8983 15.575 40.5902 15.2669C40.2822 14.9588 39.8643 14.7857 39.4286 14.7857Z" fill="#E9E9E9"/>
</svg>
